<svg xmlns="http://www.w3.org/2000/svg" version="1.1" xmlns:xlink="http://www.w3.org/1999/xlink" width="1000" height="1000"><g clip-path="url(#SvgjsClipPath1054)"><rect width="1000" height="1000" fill="#ffffff"></rect><g transform="matrix(5.208333333333333,0,0,5.208333333333333,0,0)"><svg xmlns="http://www.w3.org/2000/svg" version="1.1" xmlns:xlink="http://www.w3.org/1999/xlink" width="192" height="192"><svg width="192" height="192" viewBox="0 0 192 192" fill="none" xmlns="http://www.w3.org/2000/svg">
<rect width="192" height="192" fill="#14B8A6"></rect>
<path d="M66.4444 138H125.555C127.795 138 129.943 137.104 131.527 135.511C133.11 133.917 134 131.755 134 129.5V91.2518C134.003 90.6925 133.897 90.1381 133.687 89.6203C133.476 89.1025 133.167 88.6316 132.775 88.2345L98.9977 54.2358C98.2067 53.4443 97.1365 53 96.0211 53C94.9056 53 93.8355 53.4443 93.0444 54.2358L59.2667 88.2345C58.8677 88.6281 58.5503 89.0974 58.3329 89.6154C58.1155 90.1333 58.0023 90.6896 58 91.2518V129.5C58 131.755 58.8897 133.917 60.4733 135.511C62.057 137.104 64.2048 138 66.4444 138ZM87.5555 129.5V108.251H104.444V129.5H87.5555ZM66.4444 92.9943L96 63.2455L125.555 92.9943V129.5H112.889V108.251C112.889 105.997 111.999 103.835 110.416 102.241C108.832 100.647 106.684 99.7515 104.444 99.7515H87.5555C85.3159 99.7515 83.168 100.647 81.5844 102.241C80.0008 103.835 79.1111 105.997 79.1111 108.251V129.5H66.4444V92.9943Z" fill="white"></path>
</svg></svg></g></g><defs><clipPath id="SvgjsClipPath1054"><rect width="1000" height="1000" x="0" y="0" rx="500" ry="500"></rect></clipPath></defs></svg>